<svg xmlns="http://www.w3.org/2000/svg" width="9.495" height="9.496" viewBox="0 0 9.495 9.496">
  <defs>
    <style>
      .cls-1 {
        fill: #fff;
      }
    </style>
  </defs>
  <g id="icon" transform="translate(-336.999 -22.506)">
    <path id="Subtraction_3" data-name="Subtraction 3" class="cls-1" d="M-13029,11h-7V4h4V5h-3v5h5V7h1v4h0Z" transform="translate(13373 21)"/>
    <path id="Icon_awesome-arrow-down" data-name="Icon awesome-arrow-down" class="cls-1" d="M3.646,3.769l.177.177a.191.191,0,0,1,0,.27L2.274,5.766a.191.191,0,0,1-.27,0L.453,4.216a.191.191,0,0,1,0-.27L.63,3.769a.192.192,0,0,1,.273,0l.915.961.1-5.827a.191.191,0,0,1,.191-.191h.255a.191.191,0,0,1,.191.191l-.1,5.827.915-.961a.19.19,0,0,1,.273,0Z" transform="translate(342.658 29.366) rotate(-135)"/>
  </g>
</svg>
