<svg xmlns="http://www.w3.org/2000/svg" width="103" height="29.416" viewBox="0 0 103 29.416"><defs><style>.a{fill:#fff;}</style></defs><g transform="translate(-54 -17)"><g transform="translate(54 17)"><g transform="translate(0)"><path class="a" d="M506.911,424.44V410.468h6.055a2.129,2.129,0,0,1,1.514,2.329v2.076a2.535,2.535,0,0,0,0,4.658v2.581a2.13,2.13,0,0,1-1.514,2.329Zm3.1-8.151h1.164l.194-.194v-3.1l-.194-.194h-1.164Zm1.358,5.628v-3.105l-.194-.194h-1.164v3.493h1.164Z" transform="translate(-506.911 -410.468)"/><path class="a" d="M585.013,421.723h-1.475l-.233,2.717h-2.911v-2.348l1.766-11.624h4.231l1.766,11.624v2.348h-2.911Zm-1.223-2.911h.97l-.388-4.4h-.194Z" transform="translate(-572.05 -410.468)"/><path class="a" d="M652.9,410.468h-7.568v2.911h2.232V424.44h3.1V413.378h3.1V424.44h3.1V413.378h2.232v-2.911Z" transform="translate(-629.618 -410.468)"/><path class="a" d="M771.8,410.468h3.1v11.061h3.2v2.911H771.8Z" transform="translate(-741.721 -410.468)"/><path class="a" d="M833.32,410.468h6.4v2.911h-3.3V415.9h3.1v2.911h-3.1v2.717h3.4v2.911h-6.5Z" transform="translate(-796.257 -410.468)"/><path class="a" d="M900.628,424.44a2.129,2.129,0,0,1-1.514-2.329V412.8a2.129,2.129,0,0,1,1.514-2.329h4.541a2.129,2.129,0,0,1,1.514,2.329v2.328h-3.1v-1.94l-.194-.194h-.97l-.194.194v8.539l.194.194h.97l.194-.194V419.2H902.8v-2.911h3.881v5.822a2.129,2.129,0,0,1-1.514,2.329Z" transform="translate(-854.581 -410.468)"/><path class="a" d="M974.306,424.44V410.468h6.055a2.129,2.129,0,0,1,1.514,2.329v2.969a2.128,2.128,0,0,1-1.3,2.251l1.669,4.463v1.96h-2.717l-1.786-5.433h-.33v5.433Zm3.105-11.449v3.493h1.164l.194-.194v-3.1l-.194-.194Z" transform="translate(-921.235 -410.468)"/><path class="a" d="M1056.725,422.111a2.129,2.129,0,0,1-1.514,2.329h-4.541a2.129,2.129,0,0,1-1.514-2.329V412.8a2.129,2.129,0,0,1,1.514-2.329h4.541a2.129,2.129,0,0,1,1.514,2.329Zm-3.1-8.927-.194-.194h-.97l-.194.194v8.539l.194.194h.97l.194-.194Z" transform="translate(-987.587 -410.468)"/><path class="a" d="M1127.458,421.723l.194.194h.777l.194-.194V410.468h3.1v11.643a2.129,2.129,0,0,1-1.513,2.329h-4.347a2.13,2.13,0,0,1-1.514-2.329V410.468h3.105Z" transform="translate(-1054.244 -410.468)"/><path class="a" d="M1202.689,410.468h2.717V424.44h-2.717l-1.94-6.094h-.194v6.094h-2.717V410.468h2.717l1.94,6.093h.194Z" transform="translate(-1119.385 -410.468)"/><path class="a" d="M1280.6,422.111a2.129,2.129,0,0,1-1.514,2.329h-6.055V410.468h6.055a2.129,2.129,0,0,1,1.514,2.329Zm-4.463-9.121v8.927h1.165l.194-.194v-8.539l-.194-.194Z" transform="translate(-1186.04 -410.468)"/><path class="a" d="M1354.938,418.929v3.182a2.129,2.129,0,0,1-1.514,2.329h-4.541a2.13,2.13,0,0,1-1.514-2.329v-2.756h3.105v2.368l.194.194h.97l.194-.194v-2.135l-.174-.272-3.2-1.436c-.951-.427-1.087-1.087-1.087-2.135V412.8a2.13,2.13,0,0,1,1.514-2.329h4.541a2.129,2.129,0,0,1,1.514,2.329v2.6h-3.1v-2.212l-.194-.194h-.97l-.194.194v2.038l.252.31,3.125,1.261C1354.8,417.182,1354.938,417.881,1354.938,418.929Z" transform="translate(-1251.938 -410.468)"/></g><g transform="translate(63.426 18.484)"><g transform="translate(0 0)"><path class="a" d="M1065.5,582.9v-9.648h2.269V582.9Z" transform="translate(-1065.5 -573.253)"/><path class="a" d="M1120.457,582.9l-2.469-5.582-.054-.193V582.9H1115.7v-9.648h2.415l2.105,4.934.054.207v-5.141h2.233V582.9Z" transform="translate(-1110.001 -573.253)"/><path class="a" d="M1210.761,582.9h-4.883v-9.648h4.883c1.144,0,1.924.592,1.924,1.447v6.74C1212.686,582.309,1211.9,582.9,1210.761,582.9Zm-.345-1.64v-6.368c0-.041-.036-.055-.073-.055h-2.2v6.478h2.2C1210.38,581.316,1210.416,581.289,1210.416,581.261Z" transform="translate(-1189.939 -573.253)"/><path class="a" d="M1296.215,582.9v-9.648h2.269V582.9Z" transform="translate(-1270.018 -573.253)"/><path class="a" d="M1346.465,581.592h-2.759l-.345,1.309h-2.378l2.723-9.648h2.741l2.723,9.648h-2.378Zm-.4-1.516-.926-3.68-.054-.344-.055.344-.944,3.68Z" transform="translate(-1309.703 -573.253)"/></g></g><g transform="translate(0.001 17.2)"><path class="a" d="M673.421,595h-1.382c-.029,0-.044.011-.044.033v4.623c0,.023.015.034.044.034h1.382c.03,0,.044-.011.044-.034v-4.623C673.466,595.011,673.451,595,673.421,595Z" transform="translate(-653.251 -591.247)"/><path class="a" d="M748.421,621.356h-1.427v1.7h1.427c.029,0,.044-.011.044-.034v-1.63C748.465,621.367,748.45,621.356,748.421,621.356Z" transform="translate(-719.734 -614.61)"/><path class="a" d="M748.421,595h-1.427v1.541h1.427c.029,0,.044-.011.044-.033v-1.474C748.465,595.011,748.45,595,748.421,595Z" transform="translate(-719.734 -591.247)"/><path class="a" d="M506.921,561.946v12.216h57.2V561.946Zm13.919,10.006h-2.133V568.1l-.044.2-1.221,3.651H516.6L515.4,568.3l-.044-.2v3.852h-2.133v-7.817h2.544l1.265,3.875,1.265-3.875h2.544Zm8.5-1.161c0,.7-.633,1.183-1.559,1.183h-2.765c-.926,0-1.559-.48-1.559-1.183V565.3c0-.7.632-1.184,1.559-1.184h2.765c.926,0,1.559.48,1.559,1.184Zm8.516-3.752a.882.882,0,0,1-.735.9v.023a.894.894,0,0,1,.735.916v1.887c0,.7-.632,1.184-1.559,1.184h-4.324v-7.817H536.3c.927,0,1.559.48,1.559,1.184Zm4.825,4.914h-2.206v-7.817h2.206Zm7.751,0h-5.148v-7.817h2.206v6.253h2.942Zm7.384-6.253h-2.942v1.541h2.206v1.452h-2.206v1.7h2.942v1.563h-5.148v-7.817h5.148Z" transform="translate(-506.921 -561.946)"/></g></g></g></svg>