<svg xmlns="http://www.w3.org/2000/svg" width="9.926" height="9.926" viewBox="0 0 9.926 9.926">
    <path fill="#fff" d="M7.01 7.4a1.269 1.269 0 0 1 .149-.432.868.868 0 0 1 .293-.308.881.881 0 0 1 .448-.116.9.9 0 0 1 .313.065.8.8 0 0 1 .258.179.956.956 0 0 1 .169.263.869.869 0 0 1 .069.318H9.6a1.777 1.777 0 0 0-.139-.64 1.489 1.489 0 0 0-.347-.5 1.621 1.621 0 0 0-.535-.329 1.917 1.917 0 0 0-.69-.114 1.94 1.94 0 0 0-.844.169 1.707 1.707 0 0 0-.6.457 1.866 1.866 0 0 0-.352.675 2.907 2.907 0 0 0-.119.814v.134a2.906 2.906 0 0 0 .114.814 1.8 1.8 0 0 0 .352.67 1.694 1.694 0 0 0 .6.452 2.014 2.014 0 0 0 .844.169 1.893 1.893 0 0 0 .655-.114 1.693 1.693 0 0 0 .536-.313 1.515 1.515 0 0 0 .367-.467 1.336 1.336 0 0 0 .149-.571H8.7a.707.707 0 0 1-.074.288.73.73 0 0 1-.179.228.782.782 0 0 1-.258.149.986.986 0 0 1-.3.05.843.843 0 0 1-.442-.114.868.868 0 0 1-.293-.308 1.3 1.3 0 0 1-.149-.437 3.345 3.345 0 0 1-.04-.5V7.9a3.307 3.307 0 0 1 .04-.5zM7.963 3a4.963 4.963 0 1 0 4.963 4.963A4.965 4.965 0 0 0 7.963 3zm0 8.934a3.971 3.971 0 1 1 3.971-3.971 3.976 3.976 0 0 1-3.971 3.971z" transform="translate(-3 -3)"/>
</svg>
