<svg xmlns="http://www.w3.org/2000/svg" width="161" height="198" viewBox="0 0 161 198"><defs><style>.a{fill:#fff;}</style></defs><g transform="translate(-1350.523 -392.773)"><path class="a" d="M1501,611.219l-.14.14v6.152l.14.14h.7l.14-.14v-6.152l-.14-.14Z" transform="translate(-60.46 -86.396)"/><path class="a" d="M1456.79,631.3h-3.116v5.631h3.116c.667,0,1.124-.345,1.124-.852v-1.36a.644.644,0,0,0-.53-.659v-.016a.636.636,0,0,0,.53-.652v-1.239C1457.913,631.651,1457.457,631.3,1456.79,631.3Zm-.467,4.481c0,.016-.01.025-.031.025h-1.028v-1.223h1.028c.021,0,.031.008.031.024Zm0-2.268c0,.016-.01.024-.031.024h-1.028v-1.11h1.028c.021,0,.031.008.031.024Z" transform="translate(-41.499 -94.34)"/><rect class="a" width="1.59" height="5.632" transform="translate(1418.24 536.965)"/><path class="a" d="M1434.086,634.1l-.911-2.792h-1.833v5.632h1.536v-2.776l.032.145.869,2.631h.6l.879-2.631.032-.145v2.776h1.536V631.3H1435Z" transform="translate(-32.52 -94.34)"/><path class="a" d="M1531.129,611.219v6.431h.839l.14-.14v-6.152l-.14-.14Z" transform="translate(-72.634 -86.396)"/><path class="a" d="M1521.053,632.113v4.668h1.583c.026,0,.052-.02.052-.039v-4.588c0-.03-.026-.04-.052-.04Z" transform="translate(-68.587 -94.659)"/><path class="a" d="M1541.036,633.558l-.039.248-.68,2.652h1.425l-.667-2.652Z" transform="translate(-76.333 -95.229)"/><path class="a" d="M1446.649,631.278h-1.993c-.667,0-1.123.346-1.123.853v3.958c0,.507.456.853,1.123.853h1.993c.667,0,1.123-.346,1.123-.853v-3.958C1447.772,631.624,1447.316,631.278,1446.649,631.278Zm-.466,4.5c0,.016-.011.025-.032.025h-1c-.022,0-.032-.009-.032-.025v-3.331c0-.016.01-.024.032-.024h1c.021,0,.032.008.032.024Z" transform="translate(-37.42 -94.329)"/><rect class="a" width="1.582" height="7.22" transform="translate(1427.448 552.077)"/><path class="a" d="M1488.578,517.819V500.731a1.618,1.618,0,0,0-.466-1.211c-.609-.6-1.836-.9-3.692-.889-1.8.012-3.605,0-5.374-.022v21.428q2.587.007,5.175,0C1487.111,520.038,1488.577,519.291,1488.578,517.819Z" transform="translate(-51.739 -41.863)"/><path class="a" d="M1478.319,636.937h3.709V635.81h-2.119v-1.223h1.589v-1.046h-1.589v-1.11h2.119V631.3h-3.709Z" transform="translate(-51.411 -94.34)"/><path class="a" d="M1471.115,631.3h-1.589v5.632h3.709V635.81h-2.12Z" transform="translate(-47.874 -94.34)"/><path class="a" d="M1438.1,612.906l-.28,3.174h.7l-.28-3.174Z" transform="translate(-35.107 -87.061)"/><path class="a" d="M1427.536,617.92v2.517h.839l.14-.14V618.06l-.14-.14Z" transform="translate(-30.972 -89.044)"/><path class="a" d="M1427.536,610.988V613.5h.839l.14-.14v-2.237l-.14-.14Z" transform="translate(-30.972 -86.302)"/><path class="a" d="M1490.736,611.219v2.517h.839l.14-.14v-2.237l-.14-.14Z" transform="translate(-56.389 -86.394)"/><path class="a" d="M1493.035,451.523q-.32-5.716-.642-11.43a172.223,172.223,0,0,0-44.046,0q-.321,5.715-.642,11.43a177.245,177.245,0,0,1,45.33,0Z" transform="translate(-39.347 -18.133)"/><path class="a" d="M1443.722,447.424a.822.822,0,1,0-.788-.821A.805.805,0,0,0,1443.722,447.424Z" transform="translate(-37.167 -20.938)"/><path class="a" d="M1445,464.723c4.081-.085,8.2.183,12.338.076,2.067-.031,4.14-.111,6.213-.116,1.917-.026,3.834-.047,5.753-.029,1.918-.018,3.836,0,5.753.029,2.073,0,4.146.084,6.213.116,4.135.108,8.258-.16,12.339-.076,0-.045-.006-.091-.009-.137a171.739,171.739,0,0,0-48.592,0C1445,464.632,1445,464.678,1445,464.723Z" transform="translate(-38.276 -27.718)"/><path class="a" d="M1443.722,455.568a.822.822,0,1,0-.788-.821A.805.805,0,0,0,1443.722,455.568Z" transform="translate(-37.167 -24.155)"/><path class="a" d="M1506.963,482.435v-.081c.006-2.1-.181-42.825-.239-55.256l-.056-16.39-43.349,11.418c-.062-.809-.123-1.643-.184-2.518a6.669,6.669,0,0,0-3.97-5.688,27.383,27.383,0,0,0-2.256-6.118c-4.748-9.27-14.668-15.028-25.885-15.028a29.876,29.876,0,0,0-19.43,6.876,26.955,26.955,0,0,0-8.7,14.268,6.674,6.674,0,0,0-3.976,5.69c-.065.932-.131,1.819-.2,2.676l-43.337-11.662-.054,16.017-.013,2.945c-.156,33.651-.233,51.405-.228,52.772v.083a9.546,9.546,0,0,0-4.56,8.619v34.6a8.642,8.642,0,0,0,3.447,7.389,8.185,8.185,0,0,0,4.8,1.485,11.763,11.763,0,0,0,3.441-.568l.639,1.234c4.915,9.506,12.9,16.584,28.943,28.862l.267.2,38.958,26.513,38.98-26.516.27-.207c16.036-12.272,24.02-19.35,28.934-28.856l.636-1.229a11.794,11.794,0,0,0,3.438.557,8.2,8.2,0,0,0,4.8-1.488,8.637,8.637,0,0,0,3.446-7.383V491A9.481,9.481,0,0,0,1506.963,482.435Zm-14.09-62.083,8.068-2.125.028,8.431c0,.291.249,53.31.241,55.679h-.01c-2.009-.045-4.031-.087-6.056-.128l-.226-.89c-.057-.226-.115-.449-.173-.675,0-1.836-.244-53.963-.244-53.963l-31.122,8.2c0-.025,0-.049,0-.074-.165-2.434-.332-4.545-.5-6.552Zm-30.663,61.619c3.465-11.389,6.631-22.348,9.678-33.5l.052-.19.191-.038c2.605-.519,5.229-1.095,7.8-1.71l.291-.069.084.291c3.355,11.555,6.458,22.986,9.487,34.946l.1.391-.4.007q-3.638.065-7.3.123l-.257,0-.056-.253q-.712-3.226-1.426-6.394c-2.925.17-5.884.326-8.8.464q-.721,3.075-1.444,6.1l-.057.241-.246,0q-3.685.043-7.387.078l-.319,0Zm14.6,4.323.311,0v5.191l-.328-.014c-4.242-.177-8.517-.329-12.714-.455v8.73c3.645.266,7.326.582,10.947.938l.285.028v5.06l-.354-.044c-3.591-.447-7.249-.843-10.878-1.179v9.423c4.341.6,8.706,1.334,12.977,2.171l.256.05v5.211l-.384-.086c-6.81-1.523-13.778-2.72-20.71-3.556l-.278-.033V486.068l.318,0C1463.13,486.123,1470.046,486.2,1476.807,486.295Zm-11.466,38.532h-.691l-.138.14v1.467l.179.224,2.225.908c.677.279.773.782.773,1.537v2.291a1.532,1.532,0,0,1-1.078,1.676h-3.233a1.532,1.532,0,0,1-1.078-1.676v-1.983h2.211v1.7l.138.14h.691l.138-.14v-1.537l-.124-.2-2.28-1.034c-.677-.307-.774-.782-.774-1.537v-2.123a1.533,1.533,0,0,1,1.078-1.677h3.233a1.533,1.533,0,0,1,1.078,1.677v1.872h-2.211v-1.592Zm2.273,18.436h-1.693l-.233-.943h-1.964l-.246.943h-1.693l1.939-6.946h1.951Zm-11.323-10.194V523.01h4.311a1.533,1.533,0,0,1,1.078,1.677v6.705a1.532,1.532,0,0,1-1.078,1.676Zm3.49,3.248v6.946h-1.616v-6.946Zm-17.047,17.507.008-.5.836-3h1.7v10.781h-1.953v-7.282Zm-3.087,5.473v1.81h-5.4V559.86l3.458-6.148V552.1h-1.406v1.919h-1.947v-2.524a1.048,1.048,0,0,1,1.159-1.166h2.994a1.049,1.049,0,0,1,1.159,1.166v2a2.488,2.488,0,0,1-.362,1.195l-2.611,4.612Zm-45.291-15.109v-8.794h40.723v8.794Zm36.61,7.317v8.429a1.046,1.046,0,0,1-1.146,1.173h-3.184a1.04,1.04,0,0,1-1.133-1.173V551.5a1.052,1.052,0,0,1,1.153-1.179h3.164A1.049,1.049,0,0,1,1430.967,551.5Zm-8.791,7.792v1.81h-5.4V559.86l3.458-6.148V552.1h-1.407v1.919h-1.947v-2.524a1.049,1.049,0,0,1,1.16-1.166h2.994a1.049,1.049,0,0,1,1.159,1.166v2a2.486,2.486,0,0,1-.362,1.195l-2.611,4.612Zm-17.46-59.986.333-.019v4.68l-.293.022c-3.652.267-7.346.6-10.984.977V514.6c4.281-.673,8.637-1.236,12.955-1.675l.347-.035v4.732l-.279.032c-6.931.8-13.9,1.968-20.723,3.46l-.382.084V486.288l.311,0c6.733-.094,13.651-.167,20.562-.219l.318,0v4.731l-.309.007c-4.266.094-8.57.213-12.8.356v8.923C1397.383,499.78,1401.063,499.522,1404.715,499.309Zm27.245-13.336c3.232,0,4.872,1.03,4.872,3.058v10.8c0,1.411-.809,2.324-2.407,2.714a24.178,24.178,0,0,1-4.417.277c2.432,3.909,5.257,8.467,8.037,13.051l.306.5-.586-.019c-2.606-.083-5.253-.117-7.874-.105h-.178l-.093-.152q-2.711-4.463-5.423-8.886l-2.96-4.843v-3.091l.309-.007c2.362-.051,4.756-.083,7.123-.1v-8.759q-4.451.01-8.9.053v26.079l-.3.016c-2.5.138-5.034.322-7.537.551l-.344.031v-31.12l.314,0C1418.581,485.99,1425.333,485.976,1431.96,485.973Zm-12.787-3.38V452l.332.018c5.106.279,10.283.373,15.39.279a15.161,15.161,0,0,1,7.29,1.3,4.674,4.674,0,0,1,2.817,4.313V476.6a4.957,4.957,0,0,1-2.807,4.453,14.781,14.781,0,0,1-7.295,1.557q-1.951,0-3.9,0-5.758,0-11.51-.02Zm18.62,49.065v1.411h-1.934l-1.271-3.911h-.235v3.911h-2.211V523.01h4.311a1.533,1.533,0,0,1,1.078,1.677v2.137a1.533,1.533,0,0,1-.926,1.621Zm-8.69-6.831h-.691l-.139.14v6.147l.139.14h.691l.138-.14V529.3h-.552v-2.1h2.763v4.191a1.532,1.532,0,0,1-1.078,1.676h-3.233a1.532,1.532,0,0,1-1.077-1.676v-6.705a1.533,1.533,0,0,1,1.077-1.677h3.233a1.533,1.533,0,0,1,1.078,1.677v1.676h-2.211v-1.4Zm-3.938,2.1v2.1h-2.21v1.956h2.418v2.1h-4.629V523.01h4.559v2.1h-2.348v1.816Zm-4.9,4.052v2.1h-4.49V523.01h2.21v7.963Zm-4.9-7.963v2.1h-1.589v7.963h-2.21v-7.963h-2.21v7.963h-2.211v-7.963h-1.589v-2.1h9.809Zm-9.533,8.368v1.69h-2.072l-.166-1.956h-1.05l-.166,1.956H1400.3v-1.69l1.257-8.368h3.012Zm-11.467-8.368h4.311a1.533,1.533,0,0,1,1.078,1.677v1.494a1.833,1.833,0,0,0,0,3.353v1.858a1.532,1.532,0,0,1-1.078,1.676h-4.311Zm45.158,20.252v-6.946h1.616v6.946Zm-.243-10.194a1.532,1.532,0,0,1-1.077-1.676v-6.705a1.532,1.532,0,0,1,1.077-1.677h3.233a1.532,1.532,0,0,1,1.077,1.677v6.705a1.532,1.532,0,0,1-1.077,1.676Zm5.93,6.175-.039-.139v4.158h-1.59v-6.946h1.719l1.5,3.552.039.149v-3.7h1.59v6.946h-1.461Zm.149-6.175a1.532,1.532,0,0,1-1.078-1.676V523.01h2.211v8.1l.138.14h.553l.138-.14v-8.1h2.21v8.382a1.531,1.531,0,0,1-1.078,1.676Zm-2.842-16.5-.3-.016V485.992h.317q3.777.014,7.549.035l.314,0v31.116l-.344-.031C1447.541,516.887,1445.005,516.7,1442.507,516.566Zm7.705,6.444h1.935l1.381,4.387h.138V523.01h1.934v10.058h-1.934l-1.382-4.386h-.137v4.386h-1.935Zm.65,13.307h3.477c.814,0,1.37.427,1.37,1.042v4.852c0,.625-.555,1.052-1.37,1.052h-3.477Zm-.209-53.76-.318,0V451.448l.286-.027c2.5-.235,5.033-.516,7.517-.839l.356-.047V482.5l-.313,0Q1454.423,482.535,1450.654,482.557Zm-46-62.541a.894.894,0,0,1,.746-.823c.837-.131,1.675-.249,2.512-.367,1.026-12.3,10.979-20.237,23.115-20.237,9.1,0,16.975,4.467,20.777,11.887a22.268,22.268,0,0,1,2.338,8.35c.838.118,1.676.236,2.512.367a.893.893,0,0,1,.746.823c.389,5.574.778,9.393,1.167,15.121.031.462-1.38,1.337-1.349,1.8.112,1.653.224,5.891.337,7.544.125,1.8-1.4,2.988-3.409,2.71a158.568,158.568,0,0,0-46.238,0c-2.01.278-3.533-.912-3.409-2.71.112-1.653.224-5.891.337-7.544.031-.462-1.38-1.337-1.349-1.8C1403.872,429.409,1404.261,425.59,1404.65,420.016Zm1.139,48.431a3.629,3.629,0,0,1-.021-.381V450.815l.352.042c2.434.29,4.9.539,7.33.743l.289.024V482.57l-.318,0q-3.3-.018-6.6-.041h-.174l-.092-.149c-4-6.483-7.6-12.625-10.975-18.711.01.116.014.226.014.329v18.432l-.319,0q-3.644-.039-7.271-.086l-.312,0v-34.5l.38.079c2.145.447,4.341.868,6.526,1.252l.15.027.073.135C1398.232,455.649,1401.83,461.923,1405.789,468.447Zm-44.712-41.79.029-8.476,8.1,2.18,29.942,8.058c-.16,1.957-.322,4.018-.482,6.383-.006.087,0,.168,0,.253l-31.12-8.374s-.248,53.21-.241,55.52q-3.249.065-6.467.137C1360.828,479.968,1361.075,426.949,1361.077,426.657Zm21.154,19.947v35.652l-.32,0q-3.7-.056-7.381-.12l-.31-.005v-37.6l.4.111c2.439.678,4.918,1.32,7.369,1.906Zm-21.188,81.632a6.932,6.932,0,0,1-2.276.476,2.472,2.472,0,0,1-1.477-.419,3.056,3.056,0,0,1-1.015-2.641V515.307l.237-.062c2.388-.623,4.823-1.224,7.238-1.786l.387-.089v8.117c2.742-.808,5.529-1.574,8.294-2.28v-6.881a158.676,158.676,0,0,1-14.443-8.452,3.846,3.846,0,0,1-1.712-3.4v-9.42c0-2.807,1.568-4.259,4.657-4.318q7.283-.164,14.7-.293a5.4,5.4,0,0,1,3.934,1.139,3.148,3.148,0,0,1,.865,2.326v8.228l-.288.025c-2.439.218-4.916.456-7.363.708l-.348.036v-7.056q-4.167.219-8.294.471v6.749c4.464,2.925,9.213,5.7,14.513,8.493a3.1,3.1,0,0,1,1.78,2.912v8.458c0,2.306-1.539,3.849-4.71,4.718C1370.79,525,1365.853,526.54,1361.043,528.236Zm105.751,31.176-.144.11-.149.1-31.874,21.683-3.61,2.456-3.611-2.457-31.859-21.682-.149-.1-.143-.109c-15.752-12.053-22.99-18.559-27.31-26.914q3.153-1.018,6.334-1.938c3.916,6.839,10.73,12.811,24.879,23.638l31.86,21.682,31.875-21.683c14.149-10.828,20.962-16.8,24.877-23.638q3.181.917,6.334,1.938C1489.782,540.853,1482.544,547.359,1466.794,559.412Zm38.977-58.57-.358-.049c-2.41-.325-4.84-.637-7.225-.924l-.279-.033v-7.512q-4.126-.252-8.294-.471v6.264a162.259,162.259,0,0,1,14.5,13.418,5.655,5.655,0,0,1,1.658,4.02v10.1a3.043,3.043,0,0,1-1.014,2.633,2.485,2.485,0,0,1-1.484.421,7.03,7.03,0,0,1-2.3-.481c-4.808-1.7-9.746-3.237-14.676-4.58-3.106-.849-4.679-2.434-4.679-4.709V510.1l.369.063c2.457.423,4.939.884,7.376,1.369l.255.05v7.625c2.765.706,5.552,1.471,8.294,2.28v-7.278a165.531,165.531,0,0,0-14.562-13.1,4.137,4.137,0,0,1-1.731-3.262v-7.891a3.215,3.215,0,0,1,.879-2.375,5.357,5.357,0,0,1,3.887-1.135q7.411.128,14.7.293c3.109.059,4.687,1.494,4.687,4.264Z" transform="translate(0)"/><path class="a" d="M1558.327,499.112c-1.08,4.676-2.188,9.374-3.3,13.99,2.158-.156,4.357-.327,6.55-.511C1560.521,508.116,1559.429,503.59,1558.327,499.112Z" transform="translate(-82.298 -42.06)"/><path class="a" d="M1525.584,447.424a.822.822,0,1,0-.788-.821A.805.805,0,0,0,1525.584,447.424Z" transform="translate(-70.092 -20.938)"/><path class="a" d="M1525.584,455.568a.822.822,0,1,0-.788-.821A.805.805,0,0,0,1525.584,455.568Z" transform="translate(-70.092 -24.155)"/><path class="a" d="M1491.706,432.914c0-.06-.006-.121-.009-.182a56.4,56.4,0,0,0-9.759-2.007c-1.623-.23-3.242-.321-4.863-.448-1.4-.073-2.8-.1-4.207-.121-1.4.019-2.8.048-4.208.121-1.62.126-3.24.217-4.862.448a56.389,56.389,0,0,0-9.759,2.007c0,.061-.006.122-.009.182a186.449,186.449,0,0,1,37.676,0Z" transform="translate(-41.845 -14.766)"/></g></svg>