<svg xmlns="http://www.w3.org/2000/svg" width="47" height="8" viewBox="0 0 47 8">
    <defs>
        <style>
            .cls-1{fill:#fff}
        </style>
    </defs>
    <g id="Group_201" transform="translate(-219.493 -496.723)">
        <path id="Path_221" d="M225.21 504.723l-.478-.616-1.832-3.767 1.694-3.125.38-.492h-2.036l.023.381-1.4 2.641h-.272V497.2l.235-.478h-2.036l.235.478v7.043l-.235.478h2.036l-.235-.478v-2.9h.254l1.415 2.985-.024.392z" class="cls-1" transform="translate(0 0)"/>
        <path id="Path_222" d="M300.8 496.723l.235.478v7.043l-.235.478h2.036l-.235-.478v-1.864h.55l.657 1.826-.032.517h2.115l-.415-.611-.708-1.866.966-.986v-3.417l-1.1-1.12zm1.8 1.6h1.567v2.457H302.6z" class="cls-1" transform="translate(-73.957 0)"/>
        <path id="Path_223" d="M381.43 504.723l-.2-.44-1.852-7.095.171-.465h-2.506l.171.465-1.852 7.095-.2.44h1.958l-.091-.591.2-.781h2.134l.2.781-.091.591zm-3.809-2.908l.676-2.657.676 2.657z" class="cls-1" transform="translate(-141.6 0)"/>
        <path id="Path_224" d="M682.581 504.723l-.235-.478v-3.824l1.644 4.3h1.88l-.235-.478V497.2l.235-.478h-2.036l.235.478v3.825l-1.645-4.3h-1.88l.235.478v7.043l-.235.478z" class="cls-1" transform="translate(-419.377 0)"/>
        <path id="Path_225" d="M466.054 504.723l-.235-.478v-2.706h1.566l.47.241v-2.08l-.47.241h-1.565v-1.616h2.35l.469.241v-1.841h-4.621l.235.478v7.043l-.235.478z" class="cls-1" transform="translate(-222.422 0)"/>
        <path id="Path_226" d="M536.9 504.723l-.235-.478v-5.922h1.254l.469.241v-1.841h-5.009v1.841l.469-.241h1.25v5.922l-.235.478z" class="cls-1" transform="translate(-285.512 0)"/>
        <path id="Path_227" d="M610.685 504.723l1.1-1.12v-5.76l-1.1-1.12h-2.663l-1.1 1.12v5.76l1.1 1.12zm-2.193-1.6v-4.8h1.723v4.8z" class="cls-1" transform="translate(-352.413 0)"/>
    </g>
</svg>
